<?xml version="1.0" standalone="no"?>
<!DOCTYPE svg PUBLIC "-//W3C//DTD SVG 20010904//EN"
 "http://www.w3.org/TR/2001/REC-SVG-20010904/DTD/svg10.dtd">
<svg version="1.0" xmlns="http://www.w3.org/2000/svg"
 width="960.000000pt" height="360.000000pt" viewBox="0 0 960.000000 360.000000"
 preserveAspectRatio="xMidYMid meet">

<g transform="translate(0.000000,360.000000) scale(0.100000,-0.100000)"
fill="#000000" stroke="none">
<path d="M1677 3305 c-20 -14 -37 -23 -37 -20 0 4 -22 -15 -50 -41 -27 -26
-50 -51 -50 -56 0 -5 -14 -21 -31 -36 -18 -14 -38 -41 -45 -59 -8 -18 -18 -33
-23 -33 -9 0 -44 -52 -70 -105 -8 -16 -30 -60 -48 -97 -18 -38 -31 -68 -28
-68 2 0 16 17 31 38 21 29 24 32 19 12 -4 -14 -18 -48 -31 -77 -13 -29 -28
-63 -34 -78 -12 -31 -34 -34 -25 -2 l6 22 -14 -23 c-7 -12 -16 -20 -19 -17
-11 11 -17 -29 -22 -148 -3 -66 -8 -142 -12 -170 -4 -34 -2 -47 4 -38 19 27
24 -12 17 -150 -5 -90 -11 -136 -17 -127 -6 9 -8 4 -7 -17 1 -16 1 -50 0 -75
l-1 -45 -23 36 c-12 20 -34 54 -48 75 -14 22 -30 50 -34 64 -4 14 -13 32 -20
40 -6 8 -22 41 -35 73 -12 31 -27 60 -33 64 -6 3 -7 1 -3 -5 4 -7 5 -12 2 -12
-4 0 -20 32 -37 70 -18 39 -35 70 -39 70 -5 0 -13 14 -19 31 -6 17 -15 28 -20
25 -5 -3 -12 2 -15 11 -6 14 -9 15 -15 4 -7 -11 -11 -9 -20 8 -7 11 -18 21
-26 21 -8 0 -15 5 -15 10 0 6 -11 10 -24 10 -22 0 -25 -5 -30 -42 -7 -64 -5
-128 5 -128 4 0 8 -38 8 -84 -1 -46 1 -92 5 -102 3 -11 10 -59 16 -109 6 -49
14 -111 19 -137 13 -76 -11 -62 -63 37 -20 38 -46 79 -56 90 -19 20 -38 57
-113 215 -19 41 -47 89 -61 105 -14 17 -28 37 -31 46 -6 16 -46 39 -69 39 -20
0 -36 -23 -40 -60 -3 -24 13 -73 55 -174 32 -78 67 -152 77 -166 10 -14 27
-42 37 -63 10 -21 20 -35 23 -32 7 6 47 -48 133 -182 12 -18 25 -30 30 -27 5
3 9 1 9 -3 0 -23 150 -184 225 -241 33 -26 69 -54 79 -64 27 -25 49 -23 42 2
-3 11 -9 30 -12 43 -4 12 -10 24 -14 27 -24 16 -133 234 -134 267 0 12 -4 19
-9 16 -4 -3 -7 1 -6 8 2 8 -7 43 -19 79 -23 69 -44 179 -46 245 -1 28 -6 39
-15 37 -9 -2 -11 3 -7 13 3 9 6 19 6 21 0 2 6 4 13 4 8 0 20 -12 28 -27 8 -16
16 -30 20 -33 9 -8 99 -156 99 -163 0 -32 212 -411 238 -427 10 -5 14 -10 10
-10 -4 0 10 -30 31 -67 47 -83 67 -89 99 -33 12 22 27 40 33 40 12 0 6 49 -15
107 -18 52 -34 239 -19 230 8 -5 8 6 1 36 -5 23 -13 44 -19 45 -5 2 -8 13 -8
25 1 19 2 20 6 3 10 -38 21 7 16 63 -3 41 -2 52 6 41 8 -12 11 -6 11 26 0 23
3 55 6 73 l6 31 30 -25 c33 -28 126 -72 158 -76 37 -4 38 3 8 50 -23 38 -31
66 -35 115 -5 60 -4 66 13 66 11 0 25 -4 33 -9 21 -14 50 -138 41 -178 -10
-42 0 -42 20 0 14 30 18 32 68 32 48 0 54 2 68 30 52 101 79 119 135 91 44
-22 52 -20 33 9 -32 50 9 120 56 95 39 -21 56 -120 24 -138 -9 -5 -14 -15 -10
-21 4 -6 12 -9 17 -6 5 4 9 -9 9 -27 0 -40 -61 -167 -107 -224 -18 -23 -33
-47 -33 -54 0 -7 -7 -21 -16 -31 -8 -9 -17 -25 -18 -34 -3 -23 -98 -128 -161
-177 -32 -24 -50 -45 -44 -49 8 -4 7 -8 -2 -11 -8 -3 -11 -9 -7 -12 3 -4 19 7
35 24 28 33 82 71 118 84 11 4 -7 -20 -40 -53 -33 -34 -55 -61 -50 -61 6 0 3
-6 -5 -13 -18 -15 -38 -45 -46 -69 -4 -10 -15 -18 -25 -18 -10 0 -34 -14 -52
-30 -19 -16 -41 -30 -48 -30 -8 0 -29 -9 -46 -20 -18 -11 -39 -17 -48 -14 -9
4 -15 0 -15 -9 0 -8 -6 -18 -12 -20 -18 -7 12 -29 30 -22 8 3 10 0 6 -6 -4 -8
1 -9 17 -4 13 4 26 12 27 16 2 5 8 7 12 4 5 -3 7 -12 3 -20 -3 -8 -1 -15 4
-15 16 0 70 29 83 45 6 8 26 14 44 13 38 -1 73 15 106 51 34 36 112 89 126 84
6 -2 17 3 24 12 14 16 40 21 40 6 0 -5 -6 -11 -14 -14 -7 -3 -16 -15 -19 -28
-5 -20 -4 -20 21 7 51 53 176 164 186 164 5 0 2 -6 -7 -13 -28 -20 -12 -73 26
-86 22 -8 34 -8 44 0 10 9 12 9 8 -3 -7 -18 19 -71 29 -60 5 4 6 -2 5 -13 -6
-33 15 -33 26 0 5 17 17 37 25 46 8 8 96 55 195 104 158 78 279 148 310 180 6
6 16 21 23 33 10 19 10 22 -4 22 -15 0 -15 2 2 21 14 16 15 23 7 26 -7 3 -13
11 -13 19 0 9 4 13 9 10 10 -6 25 24 16 32 -3 3 -5 2 -5 -2 0 -4 -10 -2 -21 5
-17 9 -23 8 -30 -2 -5 -8 -12 -14 -16 -14 -10 -1 -73 -29 -136 -62 -38 -20
-51 -22 -62 -13 -12 10 -15 9 -15 -3 0 -9 -10 -21 -22 -28 -18 -10 -20 -9 -15
5 8 20 -2 20 -27 1 -38 -29 -47 -9 -22 48 8 18 17 57 20 87 3 30 10 56 16 58
8 3 7 8 0 17 -7 8 -10 22 -7 32 4 14 5 13 6 -5 0 -13 5 -21 10 -17 6 3 8 94 5
228 -4 183 -9 243 -30 342 -24 121 -61 246 -74 255 -4 3 -24 37 -44 75 -63
120 -196 283 -241 296 l-23 7 18 -52 c10 -28 30 -82 45 -121 15 -38 31 -87 37
-108 10 -34 12 -36 25 -20 13 16 14 15 10 -12 -2 -16 -2 -24 0 -17 3 6 11 12
19 12 10 0 14 -13 14 -42 1 -52 27 -165 30 -128 2 26 11 -17 23 -115 5 -34 4
-45 -3 -35 -8 12 -10 11 -9 -5 1 -11 5 -33 9 -50 l8 -30 2 30 c2 26 4 24 16
-20 l14 -50 -4 52 c-2 39 0 49 9 40 14 -14 29 -181 26 -285 -1 -40 1 -87 6
-105 7 -29 8 -25 14 33 4 50 6 31 10 -85 2 -82 3 -186 2 -230 -1 -55 1 -72 7
-55 l8 25 1 -25 c1 -24 -28 -60 -49 -60 -5 0 -8 12 -5 28 11 74 14 122 6 126
-4 3 -8 -8 -9 -25 -1 -50 -12 -47 -12 4 0 25 3 47 8 49 4 2 5 86 1 188 -3 125
-6 154 -8 90 l-2 -95 -20 63 c-11 34 -24 62 -29 62 -6 0 -10 9 -10 19 0 10 -7
21 -15 25 -8 3 -15 9 -14 13 1 4 1 13 0 19 -2 17 -105 124 -120 124 -7 0 -11
6 -8 14 8 21 -16 37 -49 34 -16 -1 -39 4 -51 11 -19 10 -23 9 -23 -3 0 -16
-23 -15 -105 5 -41 11 -66 10 -75 -3 -3 -4 -35 -9 -70 -13 -36 -3 -75 -12 -86
-20 -12 -8 -52 -17 -88 -21 -73 -7 -76 -5 -52 49 21 48 48 139 42 144 -2 2 -7
-5 -11 -16 -3 -12 -11 -21 -16 -21 -12 0 -11 13 2 47 6 15 16 39 21 53 18 43
40 84 58 105 16 19 32 51 34 68 1 4 28 37 61 74 33 37 52 64 42 60 -21 -8 -23
15 -2 33 8 7 15 20 15 29 0 10 22 30 49 46 65 39 71 63 30 114 -21 27 -46 44
-79 55 -62 20 -59 21 -103 -9z m43 -302 c-1 -5 -12 -21 -25 -38 -19 -23 -25
-26 -25 -12 0 9 9 26 20 37 21 21 30 25 30 13z m557 -215 c-3 -7 -5 -2 -5 12
0 14 2 19 5 13 2 -7 2 -19 0 -25z m70 -170 c-3 -7 -5 -2 -5 12 0 14 2 19 5 13
2 -7 2 -19 0 -25z m-507 -168 c21 -13 12 -17 -52 -23 -41 -4 -60 -2 -68 8 -8
10 -7 14 2 18 22 9 102 7 118 -3z m98 -40 c45 -33 50 -40 27 -40 -17 0 -96 69
-79 70 6 0 30 -14 52 -30z m-230 8 c13 -13 16 -76 4 -94 -11 -18 -89 -54 -115
-54 -14 0 -29 6 -35 13 -17 20 20 86 66 119 41 30 62 34 80 16z m191 -34 c34
-29 38 -51 16 -93 -16 -31 -33 -41 -71 -41 -75 0 -127 79 -94 141 17 31 109
27 149 -7z m-144 -119 c30 -30 32 -68 5 -113 -19 -30 -23 -32 -58 -26 -58 10
-69 20 -81 70 -7 25 -11 48 -9 49 14 12 87 44 101 45 10 0 29 -11 42 -25z
m-488 -77 c-3 -8 -6 -5 -6 6 -1 11 2 17 5 13 3 -3 4 -12 1 -19z m1040 -20 c-3
-7 -5 -2 -5 12 0 14 2 19 5 13 2 -7 2 -19 0 -25z m-1530 -10 c-3 -8 -6 -5 -6
6 -1 11 2 17 5 13 3 -3 4 -12 1 -19z m538 -195 c-9 -18 -10 -11 -29 132 -5 38
-1 31 15 -32 14 -51 19 -88 14 -100z m-518 115 c-3 -7 -5 -2 -5 12 0 14 2 19
5 13 2 -7 2 -19 0 -25z m550 -40 c-2 -13 -4 -5 -4 17 -1 22 1 32 4 23 2 -10 2
-28 0 -40z m1000 -25 c-3 -10 -5 -2 -5 17 0 19 2 27 5 18 2 -10 2 -26 0 -35z
m80 -85 c-2 -18 -4 -6 -4 27 0 33 2 48 4 33 2 -15 2 -42 0 -60z m-1117 -38 c0
-8 7 -33 14 -55 8 -22 12 -44 9 -49 -4 -5 -14 20 -23 55 -10 35 -21 73 -25 84
l-8 20 16 -20 c9 -11 17 -27 17 -35z m1023 -57 c-5 -75 -17 -108 -33 -98 -4 3
-11 -5 -15 -18 -7 -21 -8 -21 -12 7 -3 15 1 42 8 59 l13 31 7 -24 c6 -21 7
-18 8 14 1 33 20 106 27 106 1 0 0 -35 -3 -77z m-73 -119 c0 -8 -5 -12 -10 -9
-6 4 -8 11 -5 16 9 14 15 11 15 -7z m-509 -207 c-13 -13 -26 -3 -16 12 3 6 11
8 17 5 6 -4 6 -10 -1 -17z m456 -9 c-3 -8 -6 -5 -6 6 -1 11 2 17 5 13 3 -3 4
-12 1 -19z m-517 -43 c-7 -9 -15 -13 -17 -11 -7 7 7 26 19 26 6 0 6 -6 -2 -15z"/>
<path d="M2282 2680 c0 -14 2 -19 5 -12 2 6 2 18 0 25 -3 6 -5 1 -5 -13z"/>
<path d="M2341 2444 c0 -11 3 -14 6 -6 3 7 2 16 -1 19 -3 4 -6 -2 -5 -13z"/>
<path d="M2312 2425 c0 -16 2 -22 5 -12 2 9 2 23 0 30 -3 6 -5 -1 -5 -18z"/>
<path d="M5380 2111 c-96 -31 -177 -107 -207 -194 -28 -80 -24 -207 8 -277 36
-77 68 -111 141 -151 60 -32 68 -34 163 -34 83 0 109 4 150 23 107 49 171 145
182 273 l6 69 -167 0 -166 0 0 -60 0 -60 65 0 c57 0 65 -2 65 -19 0 -54 -88
-98 -163 -82 -90 21 -132 87 -125 201 5 88 37 140 102 165 65 25 111 14 161
-39 l41 -42 72 29 c40 16 72 35 72 42 0 27 -70 102 -121 130 -48 26 -65 30
-154 32 -55 1 -111 -1 -125 -6z"/>
<path d="M8351 2109 c-81 -32 -124 -100 -125 -195 0 -103 45 -149 189 -194 53
-17 75 -37 75 -70 0 -62 -77 -77 -164 -31 -32 17 -60 30 -61 29 -1 -2 -16 -29
-34 -61 -38 -67 -36 -73 42 -108 74 -33 223 -34 283 -2 75 40 114 107 114 196
0 87 -57 151 -167 187 -82 27 -108 48 -99 83 11 47 88 54 150 13 21 -13 23
-11 57 50 39 73 39 74 -45 99 -55 17 -178 19 -215 4z"/>
<path d="M3140 1791 l0 -321 173 0 c186 0 226 9 274 61 73 80 53 217 -39 262
-37 18 -37 18 -17 38 43 43 53 139 21 199 -34 62 -75 74 -254 79 l-158 3 0
-321z m245 177 c33 -15 42 -51 21 -83 -13 -20 -25 -25 -56 -25 l-40 0 0 60 c0
57 1 60 25 60 13 0 36 -5 50 -12z m45 -251 c20 -10 25 -20 25 -52 0 -48 -25
-65 -97 -65 l-48 0 0 65 0 65 48 0 c26 0 58 -6 72 -13z"/>
<path d="M3787 1808 c-63 -167 -118 -311 -122 -320 -6 -16 1 -18 83 -18 l89 0
19 53 19 52 116 3 116 3 20 -53 20 -53 90 -3 91 -3 -122 318 -121 318 -91 3
-91 3 -116 -303z m273 -95 c0 -14 -125 -19 -133 -5 -3 4 11 51 31 106 l35 98
33 -93 c19 -52 33 -100 34 -106z"/>
<path d="M4400 1790 l0 -320 80 0 80 0 2 192 3 193 150 -192 150 -192 88 -1
87 0 0 320 0 320 -85 0 -85 0 -2 -192 -3 -193 -150 192 -150 192 -82 1 -83 0
0 -320z"/>
<path d="M5930 1790 l0 -320 180 0 180 0 0 70 0 70 -100 0 -100 0 0 250 0 250
-80 0 -80 0 0 -320z"/>
<path d="M6480 1838 c-57 -150 -112 -294 -122 -320 l-18 -48 89 0 90 0 19 53
20 52 118 0 117 0 17 -50 17 -50 92 -3 c51 -1 90 1 88 5 -3 4 -55 141 -117
303 -62 162 -116 303 -121 313 -8 14 -24 17 -98 17 l-87 0 -104 -272z m260
-124 c0 -10 -16 -14 -63 -14 -35 0 -66 2 -69 5 -2 3 11 51 30 106 l35 101 34
-92 c18 -51 33 -99 33 -106z"/>
<path d="M7080 1791 l0 -321 158 0 c157 0 160 0 220 30 69 35 125 92 155 159
31 67 30 187 -2 258 -28 62 -103 136 -169 166 -40 18 -72 21 -204 25 l-158 4
0 -321z m291 153 c35 -18 78 -69 85 -102 3 -15 7 -32 9 -39 7 -21 -21 -112
-41 -135 -27 -30 -92 -58 -136 -58 l-38 0 0 181 0 180 48 -7 c26 -3 59 -13 73
-20z"/>
<path d="M7740 1790 l0 -320 185 0 185 0 0 70 0 70 -100 0 -100 0 0 55 0 55
95 0 95 0 0 70 0 70 -96 0 -95 0 3 53 3 52 98 3 97 3 0 69 0 70 -185 0 -185 0
0 -320z"/>
<path d="M8770 1790 l0 -320 85 0 85 0 0 130 0 130 120 0 120 0 0 -130 0 -130
80 0 80 0 0 320 0 320 -80 0 -80 0 0 -125 0 -125 -120 0 -120 0 0 125 0 125
-85 0 -85 0 0 -320z"/>
<path d="M2511 2044 c0 -11 3 -14 6 -6 3 7 2 16 -1 19 -3 4 -6 -2 -5 -13z"/>
<path d="M2502 1955 c0 -16 2 -22 5 -12 2 9 2 23 0 30 -3 6 -5 -1 -5 -18z"/>
<path d="M2482 1940 c0 -14 2 -19 5 -12 2 6 2 18 0 25 -3 6 -5 1 -5 -13z"/>
<path d="M1829 1773 c-13 -17 -13 -17 6 -3 11 8 22 16 24 17 2 2 0 3 -6 3 -6
0 -17 -8 -24 -17z"/>
<path d="M1596 1514 c-9 -24 -2 -26 12 -4 7 11 8 20 3 20 -5 0 -12 -7 -15 -16z"/>
<path d="M1564 1458 l-19 -23 23 19 c21 18 27 26 19 26 -2 0 -12 -10 -23 -22z"/>
<path d="M1454 1067 c-180 -86 -188 -343 -14 -441 50 -28 63 -31 140 -31 98 0
145 19 198 80 50 56 64 100 60 181 -4 90 -40 154 -112 199 -43 26 -60 30 -135
33 -74 2 -93 -1 -137 -21z m218 -134 c62 -63 44 -169 -35 -206 -41 -20 -65
-21 -104 -6 -72 27 -105 99 -77 168 23 58 65 83 132 78 43 -3 59 -10 84 -34z"/>
<path d="M3832 1070 c-45 -28 -72 -76 -72 -130 0 -70 25 -100 110 -135 40 -16
78 -38 84 -47 30 -49 -56 -76 -120 -39 -19 12 -37 21 -39 21 -3 0 -55 -90 -55
-96 0 -2 19 -14 43 -26 58 -31 186 -33 235 -3 50 30 72 73 72 140 0 51 -3 60
-32 89 -18 18 -55 41 -83 51 -81 30 -107 63 -66 85 27 14 51 13 85 -5 16 -9
30 -14 31 -13 16 19 45 92 38 98 -38 34 -181 41 -231 10z"/>
<path d="M574 1063 c3 -10 32 -110 66 -223 34 -113 63 -213 66 -222 4 -15 17
-18 69 -18 57 0 64 2 71 23 3 12 25 73 47 136 l40 115 46 -135 46 -134 65 0
64 0 68 225 c37 124 68 231 68 238 0 8 -19 12 -63 12 l-64 0 -38 -145 c-21
-79 -41 -143 -45 -140 -3 2 -26 67 -51 145 l-44 140 -52 0 -52 0 -47 -145
c-27 -79 -51 -141 -55 -137 -3 4 -18 54 -33 112 -48 186 -37 170 -112 170 -58
0 -65 -2 -60 -17z"/>
<path d="M1971 1028 c-11 -55 -71 -412 -71 -422 0 -12 121 -6 124 7 3 6 12 65
21 130 10 65 21 115 24 110 4 -4 29 -63 55 -131 45 -116 50 -123 74 -120 22 3
31 18 76 130 28 70 54 128 57 128 3 0 13 -58 24 -130 l18 -130 65 0 c62 0 64
1 59 23 -6 22 -77 441 -77 451 0 3 -29 6 -64 6 l-64 0 -43 -115 c-23 -64 -45
-118 -49 -120 -3 -2 -26 50 -50 116 l-44 119 -62 0 -63 0 -10 -52z"/>
<path d="M2580 840 l0 -240 135 0 135 0 0 55 0 55 -75 0 -75 0 0 40 0 40 70 0
70 0 0 55 0 55 -71 0 -70 0 3 38 3 37 73 3 72 3 0 49 0 50 -135 0 -135 0 0
-240z"/>
<path d="M2940 840 l0 -240 60 0 59 0 3 144 3 145 113 -145 113 -144 60 0 59
0 0 240 0 240 -60 0 -59 0 -3 -141 -3 -141 -110 141 -110 141 -62 0 -63 0 0
-240z"/>
<path d="M3566 1071 c-7 -10 -76 -191 -76 -197 0 -2 17 -4 38 -4 35 0 40 4 59
43 12 23 38 70 57 105 l36 62 -55 0 c-29 0 -56 -4 -59 -9z"/>
<path d="M4535 1055 c-49 -17 -81 -53 -95 -106 -23 -85 9 -135 110 -174 79
-30 97 -51 74 -83 -20 -28 -67 -29 -118 -1 -42 22 -41 23 -71 -33 -22 -39 -19
-45 24 -68 53 -26 135 -35 191 -20 89 24 139 117 110 204 -14 45 -46 70 -122
97 -66 25 -87 49 -62 73 19 20 60 20 97 1 27 -14 27 -14 52 35 14 27 21 51 16
54 -15 9 -124 36 -146 36 -11 -1 -38 -7 -60 -15z"/>
<path d="M8171 1060 c-130 -27 -204 -150 -180 -299 13 -79 54 -137 124 -174
54 -28 183 -30 235 -3 82 43 120 99 130 194 l6 62 -123 0 -123 0 0 -45 0 -45
44 0 c55 0 63 -11 34 -45 -44 -51 -148 -41 -179 17 -36 68 -26 158 22 204 24
23 39 29 74 29 36 0 50 -6 79 -34 l35 -34 55 23 c55 22 55 22 42 49 -43 81
-160 124 -275 101z"/>
<path d="M4850 868 c0 -171 2 -186 23 -222 27 -49 79 -76 154 -83 110 -10 198
36 221 115 7 23 12 107 12 206 l0 166 -59 0 -59 0 -4 -166 -3 -166 -29 -25
c-24 -20 -36 -24 -65 -19 -63 10 -66 18 -69 206 l-3 170 -60 0 -59 0 0 -182z"/>
<path d="M5360 815 l0 -235 65 0 65 0 0 75 0 75 43 0 c74 1 120 17 155 54 29
33 32 41 32 101 0 77 -17 118 -63 145 -27 17 -51 20 -164 20 l-133 0 0 -235z
m211 125 c13 -7 19 -21 19 -44 0 -40 -16 -55 -64 -63 l-36 -6 0 62 0 61 31 0
c17 0 39 -5 50 -10z"/>
<path d="M5790 815 l0 -235 135 0 135 0 0 50 0 49 -72 3 -73 3 -3 38 -3 37 70
0 71 0 0 55 0 55 -71 0 -70 0 3 38 3 37 73 3 72 3 0 49 0 50 -135 0 -135 0 0
-235z"/>
<path d="M6150 815 l0 -235 65 0 64 0 3 82 3 82 52 -82 52 -82 76 0 c41 0 75
2 75 5 0 3 -31 45 -69 94 l-70 89 31 13 c42 17 68 64 68 122 0 59 -21 102 -63
127 -27 17 -51 20 -159 20 l-128 0 0 -235z m207 124 c37 -31 0 -99 -54 -99
-21 0 -23 4 -23 61 l0 62 32 -7 c17 -3 37 -11 45 -17z"/>
<path d="M6820 815 l0 -235 135 0 135 0 0 50 0 50 -75 0 -75 0 0 185 0 185
-60 0 -60 0 0 -235z"/>
<path d="M7150 815 l0 -235 135 0 135 0 0 50 0 50 -70 0 -70 0 0 40 0 40 70 0
70 0 0 55 0 55 -70 0 -70 0 0 40 0 40 70 0 70 0 0 50 0 50 -135 0 -135 0 0
-235z"/>
<path d="M7635 1018 c-7 -18 -45 -116 -83 -218 -39 -102 -74 -193 -77 -202 -6
-16 0 -18 62 -18 l70 0 12 40 12 40 85 0 86 0 15 -40 16 -40 64 0 c34 0 63 4
63 9 0 5 -26 78 -58 163 -33 84 -71 186 -86 226 l-28 72 -69 0 c-70 0 -70 0
-84 -32z m110 -188 c10 -30 20 -61 23 -67 3 -9 -10 -13 -47 -13 -29 0 -51 5
-51 11 0 22 45 138 51 131 4 -4 15 -32 24 -62z"/>
<path d="M8562 873 c4 -199 14 -237 76 -280 62 -42 202 -42 264 0 65 44 73 71
76 275 l4 182 -60 0 -60 0 -3 -166 -4 -166 -28 -24 c-34 -29 -76 -31 -108 -5
-23 19 -24 24 -27 190 l-3 171 -66 0 -65 0 4 -177z"/>
<path d="M9080 815 l0 -235 135 0 135 0 0 50 0 49 -72 3 -73 3 -3 38 -3 37 70
0 71 0 0 55 0 55 -71 0 -70 0 3 38 3 37 73 3 72 3 0 49 0 50 -135 0 -135 0 0
-235z"/>
</g>
</svg>
