<?xml version="1.0" encoding="UTF-8" standalone="no"?>
<svg width="20px" height="20px" viewBox="0 0 20 20" version="1.1" xmlns="http://www.w3.org/2000/svg" xmlns:xlink="http://www.w3.org/1999/xlink">
    <!-- Generator: Sketch 45.2 (43514) - http://www.bohemiancoding.com/sketch -->
    <title>icPlay32Dark</title>
    <desc>Created with Sketch.</desc>
    <defs></defs>
    <g id="Page-1" stroke="none" stroke-width="1" fill="none" fill-rule="evenodd">
        <g id="Result-Desktop" transform="translate(-251.000000, -599.000000)" fill="#011E41">
            <g id="goals-copy-2" transform="translate(240.000000, 475.000000)">
                <g id="left-side-players-copy" transform="translate(9.000000, 112.000000)">
                    <g id="01">
                        <g id="icPlay32Dark" transform="translate(0.000000, 10.000000)">
                            <g id="icLeague60DARK">
                                <g id="Group-3" transform="translate(2.000000, 2.000000)">
                                    <g id="Group">
                                        <path d="M6.29362564,11.5454667 C6.47301026,11.5488513 6.65747179,11.5505436 6.84193333,11.5505436 C7.65254872,11.5505436 8.37685641,11.5150051 9.07070256,11.481159 C9.49885641,11.4608513 9.89824103,11.4422359 10.3128564,11.4286974 C10.3568564,11.3762359 10.4380872,11.2797744 10.5480872,11.1460821 C10.8019333,10.8346974 11.0439333,10.5165436 11.2656256,10.1966974 C11.7310103,9.5282359 12.3267026,8.53654359 12.5433179,7.62100513 C12.0017795,6.52777436 11.3637795,5.2822359 10.5565487,4.20762051 C10.5480872,4.20592821 10.5328564,4.2042359 10.5210103,4.20085128 C10.4110103,4.18054359 10.2383949,4.14331282 10.0150103,4.10777436 C9.61901026,4.04685128 9.00639487,3.97238974 8.31931795,3.97238974 C7.50870256,3.97238974 6.77593333,4.0722359 6.13793333,4.27192821 C5.47454872,5.13838974 4.79593333,6.30608205 4.05131795,7.83762051 C4.3491641,9.22362051 5.61839487,10.7754667 6.14808718,11.3830051 C6.20224103,11.4422359 6.25639487,11.4963897 6.29362564,11.5454667" id="Fill-1403"></path>
                                        <path d="M5.21545641,15.522559 C4.1137641,15.7256359 3.12207179,15.7188667 2.32837949,15.5056359 C2.34530256,15.6968667 2.35884103,15.8880974 2.3757641,16.0607128 C2.38761026,16.2333282 2.40284103,16.3856359 2.41130256,16.5142513 C4.00037949,18.3960974 6.2697641,19.6822513 8.83868718,19.9851744 C9.05361026,19.8650205 9.28037949,19.7499436 9.5037641,19.6771744 C9.28037949,19.196559 8.92499487,18.3047128 8.74561026,17.5380974 C7.96037949,17.3722513 5.80268718,16.0691744 5.21545641,15.522559" id="Fill-1405"></path>
                                        <path d="M14.3904718,15.7285128 C13.5561641,15.7285128 12.6981641,15.6066667 12.0770872,15.4069744 C11.6201641,15.8402051 9.91093333,17.148359 9.01231795,17.4918974 C9.19170256,18.2720513 9.57924103,19.2248205 9.80431795,19.6766667 C10.1377026,19.7697436 10.4744718,19.8898974 10.8247795,20.0185128 C10.8315487,20.0185128 10.8315487,20.0202051 10.8315487,20.0202051 C12.9909333,19.8475897 14.9540103,18.9794359 16.4990872,17.6442051 C16.4584718,16.8911282 16.2537026,16.0280513 16.0557026,15.5017436 C15.6647795,15.6455897 15.0826256,15.7285128 14.3904718,15.7285128" id="Fill-1407"></path>
                                        <path d="M17.6342872,10.0826359 C17.3262872,9.37525128 16.8405949,8.40048205 16.2161333,7.73540513 C16.0113641,7.73202051 15.7845949,7.73202051 15.5172103,7.73202051 C15.1821333,7.73202051 14.8216718,7.73202051 14.4612103,7.73540513 C13.9027487,7.73709744 13.3307487,7.74048205 12.7909026,7.73540513 C12.3965949,9.30586667 11.0376718,10.9897128 10.5519795,11.5549436 C10.9970564,12.4366359 11.396441,13.3843282 11.7839795,14.2998667 C11.902441,14.5774051 12.0225949,14.8650974 12.144441,15.1460205 C12.7418256,15.3457128 13.5761333,15.4607897 14.3901333,15.4607897 L14.3901333,15.5149436 L14.3935179,15.5149436 L14.3935179,15.4607897 C15.0873641,15.4607897 15.6779795,15.3744821 16.0299795,15.225559 C16.7712103,14.1340205 17.5445949,12.9358667 18.1605949,11.5430974 C18.1436718,11.4703282 18.0996718,11.3484821 18.0489026,11.1877128 C17.9676718,10.9321744 17.820441,10.5294051 17.6342872,10.0826359" id="Fill-1409"></path>
                                        <path d="M1.38441026,5.21115897 C0.56025641,6.65808205 0.083025641,8.33685128 0.083025641,10.1222359 C0.083025641,10.5486974 0.111794872,10.9616205 0.16425641,11.371159 C0.209948718,10.5334667 0.401179487,9.14238974 1.14241026,8.0102359 C0.996871795,7.13700513 1.07641026,6.19946667 1.38441026,5.21115897" id="Fill-1411"></path>
                                        <path d="M5.78491795,1.14132821 C4.38707179,1.80978974 3.51384103,2.54086667 2.75907179,3.34809744 C3.37507179,2.86071282 3.99614872,2.6136359 4.46322564,2.43425128 C4.74584103,2.06532821 5.24337949,1.54409744 5.78491795,1.14132821" id="Fill-1413"></path>
                                        <path d="M17.5505179,3.65626667 C17.3372872,3.9270359 17.1071333,4.19780513 16.863441,4.46688205 C17.1595949,5.56518974 16.7500564,6.87672821 16.4555949,7.60442051 C17.5589795,8.80595897 18.2342103,10.8621128 18.4051333,11.4273436 C18.7368256,11.445959 19.3595949,11.4916513 19.833441,11.6236513 C19.9062103,11.1345744 19.9468256,10.6336513 19.9468256,10.1225744 C19.9468256,7.65349744 19.0431333,5.39088205 17.5505179,3.65626667" id="Fill-1415"></path>
                                        <path d="M5.11391795,15.2709128 C5.15114872,14.0118359 5.49299487,12.7493744 6.07684103,11.696759 C5.56745641,11.1366051 4.16961026,9.48322051 3.80745641,7.9618359 C3.7397641,7.95675897 3.66022564,7.95506667 3.56884103,7.95506667 C2.92914872,7.95506667 1.84437949,8.06675897 1.38407179,8.13275897 C0.483764103,9.48322051 0.416071795,11.2906051 0.416071795,11.8186051 C0.416071795,11.8676821 0.417764103,11.9082974 0.417764103,11.9438359 C0.742687179,13.0641436 1.59561026,14.4484513 2.24884103,15.2066051 C2.67022564,15.3352205 3.15930256,15.4062974 3.69407179,15.4062974 C4.14084103,15.4062974 4.61637949,15.3589128 5.11391795,15.2709128" id="Fill-1417"></path>
                                        <path d="M11.7425179,0.984451282 C11.0791333,0.500451282 10.8540564,0.402297436 10.6475949,0.307528205 C10.4783641,0.300758974 10.1872872,0.28214359 10.0146718,0.28214359 C8.69128718,0.28214359 7.42544103,0.542758974 6.27128718,1.01322051 C6.17821026,1.08429744 6.09021026,1.15875897 6.00897949,1.22814359 C5.51144103,1.64952821 5.07651795,2.0878359 4.71774872,2.53629744 C5.18821026,2.73429744 5.65528718,3.24198974 6.14097949,4.08475897 C6.78067179,3.89352821 7.52021026,3.79875897 8.31897949,3.79875897 C9.32590256,3.79875897 10.1889795,3.94937436 10.571441,4.02891282 C11.1299026,3.26060513 12.3602103,2.35014359 12.9406718,2.11491282 C12.6157487,1.65460513 11.7425179,0.984451282 11.7425179,0.984451282" id="Fill-1419"></path>
                                        <path d="M16.7136718,4.32489744 C16.9489026,4.06428205 17.1672103,3.80197436 17.3702872,3.54135897 C15.8099795,1.82028205 13.5625949,0.637358974 11.1375179,0.342897436 C11.2949026,0.430897436 11.4539795,0.535820513 12.1072103,1.02151282 C12.760441,1.51058974 12.9178256,1.72889744 13.2427487,2.06905128 C14.1430564,2.2264359 16.0875179,3.64120513 16.7136718,4.32489744" id="Fill-1421"></path>
                                    </g>
                                </g>
                            </g>
                        </g>
                    </g>
                </g>
            </g>
        </g>
    </g>
</svg>