<?xml version="1.0" encoding="UTF-8" standalone="no"?>
<svg width="16px" height="23px" viewBox="0 0 16 23" version="1.1" xmlns="http://www.w3.org/2000/svg" xmlns:xlink="http://www.w3.org/1999/xlink">
    <!-- Generator: Sketch 46 (44423) - http://www.bohemiancoding.com/sketch -->
    <title>yellow-card</title>
    <desc>Created with Sketch.</desc>
    <defs></defs>
    <g id="Page-1" stroke="none" stroke-width="1" fill="none" fill-rule="evenodd">
        <g id="Result_Int_without_img" transform="translate(-253.000000, -650.000000)">
            <g id="goals-copy-2" transform="translate(240.000000, 475.000000)">
                <g id="left-side-players-copy-2" transform="translate(10.000000, 164.000000)">
                    <g id="01">
                        <g id="yellow-card" transform="translate(3.000000, 11.000000)">
                            <g id="yellow-card_1x">
                                <path d="M0.593505859,0.208251953 C5.84041341,0.208251953 8.57950846,0.208251953 8.81079102,0.208251953 C9.04207357,0.208251953 9.15771484,0.310831706 9.15771484,0.515991211 L9.15771484,9.99190066 C8.1266276,9.05634156 7.0664266,9.00008138 5.97711182,9.82312012 C5.69045783,10.0397034 4.29760742,11.1876831 5.54064941,13.1729467 C5.8051931,13.5954497 6.97025368,15.0320278 6.99099454,15.0000079 C7.00482178,14.9786612 4.87232555,14.9786612 0.593505859,15.0000079 C0.383056641,15.0000079 0.277832031,14.8962658 0.277832031,14.6887817 C0.277832031,5.45472024 0.277832031,0.733366072 0.277832031,0.524719238 C0.277832031,0.313741048 0.383056641,0.208251953 0.593505859,0.208251953 Z" id="Rectangle-6" fill="#FFCC00"></path>
                                <path d="M12.8126221,8.89941406 C12.1198324,8.52148438 11.0661419,7.41247559 9.65155078,5.5723877 C9.65155078,6.71773275 9.65155078,7.82674154 9.65155078,8.89941406 C9.65155078,9.54015022 10.5649292,10.7614238 11.2814941,11.3846436 C12.5096842,12.4528402 12.3859863,13.4802246 10.9104004,14.4667969 C10.7268034,14.2039109 10.7229759,14.1789347 9.65155078,11.9147949 C9.05233577,10.6485314 8.31565163,9.83439583 7.67005078,9.81073437 C6.08900391,9.76254687 5.21492676,11.507748 6.12805176,12.8151855 C6.62190263,13.5194167 7.01492834,14.0699538 7.30712891,14.4667969 C7.6471421,14.9285751 7.87240252,15.4936793 7.98291016,16.1621094 L7.30712891,15.4780156 C6.94034448,17.286842 7.06030281,18.4902326 7.66700391,19.0881875 C9.15451389,20.5542535 8.38306641,22.1180469 8.40116016,22.2311562 C8.47812891,22.7125625 8.84820703,23 9.39116016,23 C9.94451953,23 13.2584414,23 13.8118477,23 C14.3486133,22.9955469 14.7622852,22.552625 14.677957,21.9047187 C14.5021289,20.5931094 14.3498535,18.1746826 15.3642539,14.8802187 C16.3308122,11.7411314 15.0474806,10.118571 12.8126221,8.89941406 Z" id="Shape" fill="#011E41" fill-rule="nonzero"></path>
                            </g>
                        </g>
                    </g>
                </g>
            </g>
        </g>
    </g>
</svg>